<svg id="Layer_3" enable-background="new 0 0 64 64" height="512" viewBox="0 0 64 64" width="512" xmlns="http://www.w3.org/2000/svg"><g><path d="m2 58h60v4h-60z" fill="#88929f"/><path d="m10 46h12v12h-12z" fill="#b8bec5"/><path d="m12 2h8v44h-8z" fill="#f5b95b"/><path d="m17.414 38 2.586-2.586v-2.828l-2.586-2.586 2.586-2.586v-2.828l-2.586-2.586 2.586-2.586v-2.828l-2.586-2.586 2.586-2.586v-2.828l-2.586-2.586 2.586-2.586v-1.414h-1.414l-2.586 2.586-2.586-2.586h-1.414v1.414l2.586 2.586-2.586 2.586v2.828l2.586 2.586-2.586 2.586v2.828l2.586 2.586-2.586 2.586v2.828l2.586 2.586-2.586 2.586v2.828l2.586 2.586-2.586 2.586v2.828l2.586 2.586h2.828l2.586-2.586v-2.828zm-4-28 2.586-2.586 2.586 2.586-2.586 2.586zm0 8 2.586-2.586 2.586 2.586-2.586 2.586zm0 8 2.586-2.586 2.586 2.586-2.586 2.586zm0 8 2.586-2.586 2.586 2.586-2.586 2.586zm2.586 10.586-2.586-2.586 2.586-2.586 2.586 2.586z" fill="#88929f"/><path d="m6 6h6v8h-6z" fill="#f5b95b"/><path d="m20 6h30v8h-30z" fill="#f5b95b"/><path d="m50 6h-1.414l-2.586 2.586-2.586-2.586h-2.828l-2.586 2.586-2.586-2.586h-2.828l-2.586 2.586-2.586-2.586h-2.828l-2.586 2.586-2-2v2.828l.586.586-.586.586v2.828l2-2 2.586 2.586h2.828l2.586-2.586 2.586 2.586h2.828l2.586-2.586 2.586 2.586h2.828l2.586-2.586 2.586 2.586h1.414v-1.414l-2.586-2.586 2.586-2.586zm-24 6.586-2.586-2.586 2.586-2.586 2.586 2.586zm8 0-2.586-2.586 2.586-2.586 2.586 2.586zm8 0-2.586-2.586 2.586-2.586 2.586 2.586z" fill="#b8bec5"/><path d="m8 22h4v16h-4z" fill="#b8bec5"/><path d="m2 3h4v14h-4z" fill="#88929f"/><path d="m50 8h6l2 2-2 2h-6z" fill="#88929f"/><path d="m37 29 3-3h4l3 3v4l-3 3h-4l-3-3z" fill="#f5b95b"/><path d="m40 14h4v12h-4z" fill="#88929f"/><g><path d="m42.5 47c-2.481 0-4.5-2.019-4.5-4.5v-.5h2v.5c0 1.379 1.122 2.5 2.5 2.5s2.5-1.121 2.5-2.5-1.122-2.5-2.5-2.5h-.5c-.552 0-1-.447-1-1v-3h2v2.027c2.247.25 4 2.16 4 4.473 0 2.481-2.019 4.5-4.5 4.5z" fill="#88929f"/></g><path d="m34 54h24v4h-24z" fill="#976949"/><path d="m32 50h24v4h-24z" fill="#ac876d"/></g></svg>